solid ASCII
  facet normal -0.000000e+00 -1.000000e+00 -0.000000e+00
    outer loop
      vertex   -5.000000e+01 -3.295000e+01 2.500000e+00
      vertex   -6.250000e+01 -3.295000e+01 2.500000e+00
      vertex   -5.000000e+01 -3.295000e+01 0.000000e+00
    endloop
  endfacet
  facet normal 0.000000e+00 -1.000000e+00 0.000000e+00
    outer loop
      vertex   -5.000000e+01 -3.295000e+01 0.000000e+00
      vertex   -6.250000e+01 -3.295000e+01 2.500000e+00
      vertex   -6.250000e+01 -3.295000e+01 0.000000e+00
    endloop
  endfacet
  facet normal -1.000000e+00 0.000000e+00 0.000000e+00
    outer loop
      vertex   -5.000000e+01 -4.405000e+01 2.500000e+00
      vertex   -5.000000e+01 -3.295000e+01 2.500000e+00
      vertex   -5.000000e+01 -4.405000e+01 0.000000e+00
    endloop
  endfacet
  facet normal -1.000000e+00 0.000000e+00 0.000000e+00
    outer loop
      vertex   -5.000000e+01 -4.405000e+01 0.000000e+00
      vertex   -5.000000e+01 -3.295000e+01 2.500000e+00
      vertex   -5.000000e+01 -3.295000e+01 0.000000e+00
    endloop
  endfacet
  facet normal -0.000000e+00 1.000000e+00 0.000000e+00
    outer loop
      vertex   -6.250000e+01 -4.405000e+01 2.500000e+00
      vertex   -5.000000e+01 -4.405000e+01 2.500000e+00
      vertex   -6.250000e+01 -4.405000e+01 0.000000e+00
    endloop
  endfacet
  facet normal 0.000000e+00 1.000000e+00 0.000000e+00
    outer loop
      vertex   -6.250000e+01 -4.405000e+01 0.000000e+00
      vertex   -5.000000e+01 -4.405000e+01 2.500000e+00
      vertex   -5.000000e+01 -4.405000e+01 0.000000e+00
    endloop
  endfacet
  facet normal 1.000000e+00 0.000000e+00 0.000000e+00
    outer loop
      vertex   -6.250000e+01 -3.295000e+01 2.500000e+00
      vertex   -6.250000e+01 -4.405000e+01 2.500000e+00
      vertex   -6.250000e+01 -3.295000e+01 0.000000e+00
    endloop
  endfacet
  facet normal 1.000000e+00 0.000000e+00 0.000000e+00
    outer loop
      vertex   -6.250000e+01 -3.295000e+01 0.000000e+00
      vertex   -6.250000e+01 -4.405000e+01 2.500000e+00
      vertex   -6.250000e+01 -4.405000e+01 0.000000e+00
    endloop
  endfacet
  facet normal 9.914449e-01 1.305262e-01 0.000000e+00
    outer loop
      vertex   -4.344889e+01 -3.884323e+01 2.500000e+00
      vertex   -4.344889e+01 -3.884323e+01 0.000000e+00
      vertex   -4.350000e+01 -3.845500e+01 2.500000e+00
    endloop
  endfacet
  facet normal 9.914449e-01 1.305262e-01 0.000000e+00
    outer loop
      vertex   -4.350000e+01 -3.845500e+01 2.500000e+00
      vertex   -4.344889e+01 -3.884323e+01 0.000000e+00
      vertex   -4.350000e+01 -3.845500e+01 0.000000e+00
    endloop
  endfacet
  facet normal 9.914449e-01 -1.305262e-01 0.000000e+00
    outer loop
      vertex   -4.350000e+01 -3.845500e+01 2.500000e+00
      vertex   -4.350000e+01 -3.845500e+01 0.000000e+00
      vertex   -4.344889e+01 -3.806677e+01 2.500000e+00
    endloop
  endfacet
  facet normal 9.914449e-01 -1.305262e-01 0.000000e+00
    outer loop
      vertex   -4.344889e+01 -3.806677e+01 2.500000e+00
      vertex   -4.350000e+01 -3.845500e+01 0.000000e+00
      vertex   -4.344889e+01 -3.806677e+01 0.000000e+00
    endloop
  endfacet
  facet normal 9.238795e-01 -3.826834e-01 0.000000e+00
    outer loop
      vertex   -4.344889e+01 -3.806677e+01 2.500000e+00
      vertex   -4.344889e+01 -3.806677e+01 0.000000e+00
      vertex   -4.329904e+01 -3.770500e+01 2.500000e+00
    endloop
  endfacet
  facet normal 9.238795e-01 -3.826834e-01 0.000000e+00
    outer loop
      vertex   -4.329904e+01 -3.770500e+01 2.500000e+00
      vertex   -4.344889e+01 -3.806677e+01 0.000000e+00
      vertex   -4.329904e+01 -3.770500e+01 0.000000e+00
    endloop
  endfacet
  facet normal 7.933533e-01 -6.087614e-01 0.000000e+00
    outer loop
      vertex   -4.329904e+01 -3.770500e+01 2.500000e+00
      vertex   -4.329904e+01 -3.770500e+01 0.000000e+00
      vertex   -4.306066e+01 -3.739434e+01 2.500000e+00
    endloop
  endfacet
  facet normal 7.933533e-01 -6.087614e-01 0.000000e+00
    outer loop
      vertex   -4.306066e+01 -3.739434e+01 2.500000e+00
      vertex   -4.329904e+01 -3.770500e+01 0.000000e+00
      vertex   -4.306066e+01 -3.739434e+01 0.000000e+00
    endloop
  endfacet
  facet normal 6.087614e-01 -7.933533e-01 0.000000e+00
    outer loop
      vertex   -4.306066e+01 -3.739434e+01 2.500000e+00
      vertex   -4.306066e+01 -3.739434e+01 0.000000e+00
      vertex   -4.275000e+01 -3.715596e+01 2.500000e+00
    endloop
  endfacet
  facet normal 6.087614e-01 -7.933533e-01 0.000000e+00
    outer loop
      vertex   -4.275000e+01 -3.715596e+01 2.500000e+00
      vertex   -4.306066e+01 -3.739434e+01 0.000000e+00
      vertex   -4.275000e+01 -3.715596e+01 0.000000e+00
    endloop
  endfacet
  facet normal 3.826834e-01 -9.238795e-01 0.000000e+00
    outer loop
      vertex   -4.275000e+01 -3.715596e+01 2.500000e+00
      vertex   -4.275000e+01 -3.715596e+01 0.000000e+00
      vertex   -4.238823e+01 -3.700611e+01 2.500000e+00
    endloop
  endfacet
  facet normal 3.826834e-01 -9.238795e-01 0.000000e+00
    outer loop
      vertex   -4.238823e+01 -3.700611e+01 2.500000e+00
      vertex   -4.275000e+01 -3.715596e+01 0.000000e+00
      vertex   -4.238823e+01 -3.700611e+01 0.000000e+00
    endloop
  endfacet
  facet normal 1.305262e-01 -9.914449e-01 0.000000e+00
    outer loop
      vertex   -4.238823e+01 -3.700611e+01 2.500000e+00
      vertex   -4.238823e+01 -3.700611e+01 0.000000e+00
      vertex   -4.200000e+01 -3.695500e+01 2.500000e+00
    endloop
  endfacet
  facet normal 1.305262e-01 -9.914449e-01 0.000000e+00
    outer loop
      vertex   -4.200000e+01 -3.695500e+01 2.500000e+00
      vertex   -4.238823e+01 -3.700611e+01 0.000000e+00
      vertex   -4.200000e+01 -3.695500e+01 0.000000e+00
    endloop
  endfacet
  facet normal -1.305262e-01 -9.914449e-01 -0.000000e+00
    outer loop
      vertex   -4.200000e+01 -3.695500e+01 2.500000e+00
      vertex   -4.200000e+01 -3.695500e+01 0.000000e+00
      vertex   -4.161177e+01 -3.700611e+01 2.500000e+00
    endloop
  endfacet
  facet normal -1.305262e-01 -9.914449e-01 -0.000000e+00
    outer loop
      vertex   -4.161177e+01 -3.700611e+01 2.500000e+00
      vertex   -4.200000e+01 -3.695500e+01 0.000000e+00
      vertex   -4.161177e+01 -3.700611e+01 0.000000e+00
    endloop
  endfacet
  facet normal -3.826834e-01 -9.238795e-01 -0.000000e+00
    outer loop
      vertex   -4.161177e+01 -3.700611e+01 2.500000e+00
      vertex   -4.161177e+01 -3.700611e+01 0.000000e+00
      vertex   -4.125000e+01 -3.715596e+01 2.500000e+00
    endloop
  endfacet
  facet normal -3.826834e-01 -9.238795e-01 -0.000000e+00
    outer loop
      vertex   -4.125000e+01 -3.715596e+01 2.500000e+00
      vertex   -4.161177e+01 -3.700611e+01 0.000000e+00
      vertex   -4.125000e+01 -3.715596e+01 0.000000e+00
    endloop
  endfacet
  facet normal -6.087614e-01 -7.933533e-01 -0.000000e+00
    outer loop
      vertex   -4.125000e+01 -3.715596e+01 2.500000e+00
      vertex   -4.125000e+01 -3.715596e+01 0.000000e+00
      vertex   -4.093934e+01 -3.739434e+01 2.500000e+00
    endloop
  endfacet
  facet normal -6.087614e-01 -7.933533e-01 -0.000000e+00
    outer loop
      vertex   -4.093934e+01 -3.739434e+01 2.500000e+00
      vertex   -4.125000e+01 -3.715596e+01 0.000000e+00
      vertex   -4.093934e+01 -3.739434e+01 0.000000e+00
    endloop
  endfacet
  facet normal -7.933533e-01 -6.087614e-01 -0.000000e+00
    outer loop
      vertex   -4.093934e+01 -3.739434e+01 2.500000e+00
      vertex   -4.093934e+01 -3.739434e+01 0.000000e+00
      vertex   -4.070096e+01 -3.770500e+01 2.500000e+00
    endloop
  endfacet
  facet normal -7.933533e-01 -6.087614e-01 -0.000000e+00
    outer loop
      vertex   -4.070096e+01 -3.770500e+01 2.500000e+00
      vertex   -4.093934e+01 -3.739434e+01 0.000000e+00
      vertex   -4.070096e+01 -3.770500e+01 0.000000e+00
    endloop
  endfacet
  facet normal -9.238795e-01 -3.826834e-01 -0.000000e+00
    outer loop
      vertex   -4.070096e+01 -3.770500e+01 2.500000e+00
      vertex   -4.070096e+01 -3.770500e+01 0.000000e+00
      vertex   -4.055111e+01 -3.806677e+01 2.500000e+00
    endloop
  endfacet
  facet normal -9.238795e-01 -3.826834e-01 -0.000000e+00
    outer loop
      vertex   -4.055111e+01 -3.806677e+01 2.500000e+00
      vertex   -4.070096e+01 -3.770500e+01 0.000000e+00
      vertex   -4.055111e+01 -3.806677e+01 0.000000e+00
    endloop
  endfacet
  facet normal -9.914449e-01 -1.305262e-01 -0.000000e+00
    outer loop
      vertex   -4.055111e+01 -3.806677e+01 2.500000e+00
      vertex   -4.055111e+01 -3.806677e+01 0.000000e+00
      vertex   -4.050000e+01 -3.845500e+01 2.500000e+00
    endloop
  endfacet
  facet normal -9.914449e-01 -1.305262e-01 -0.000000e+00
    outer loop
      vertex   -4.050000e+01 -3.845500e+01 2.500000e+00
      vertex   -4.055111e+01 -3.806677e+01 0.000000e+00
      vertex   -4.050000e+01 -3.845500e+01 0.000000e+00
    endloop
  endfacet
  facet normal -9.914449e-01 1.305262e-01 0.000000e+00
    outer loop
      vertex   -4.050000e+01 -3.845500e+01 2.500000e+00
      vertex   -4.050000e+01 -3.845500e+01 0.000000e+00
      vertex   -4.055111e+01 -3.884323e+01 2.500000e+00
    endloop
  endfacet
  facet normal -9.914449e-01 1.305262e-01 0.000000e+00
    outer loop
      vertex   -4.055111e+01 -3.884323e+01 2.500000e+00
      vertex   -4.050000e+01 -3.845500e+01 0.000000e+00
      vertex   -4.055111e+01 -3.884323e+01 0.000000e+00
    endloop
  endfacet
  facet normal -9.238795e-01 3.826834e-01 0.000000e+00
    outer loop
      vertex   -4.055111e+01 -3.884323e+01 2.500000e+00
      vertex   -4.055111e+01 -3.884323e+01 0.000000e+00
      vertex   -4.070096e+01 -3.920500e+01 2.500000e+00
    endloop
  endfacet
  facet normal -9.238795e-01 3.826834e-01 0.000000e+00
    outer loop
      vertex   -4.070096e+01 -3.920500e+01 2.500000e+00
      vertex   -4.055111e+01 -3.884323e+01 0.000000e+00
      vertex   -4.070096e+01 -3.920500e+01 0.000000e+00
    endloop
  endfacet
  facet normal -7.933533e-01 6.087614e-01 0.000000e+00
    outer loop
      vertex   -4.070096e+01 -3.920500e+01 2.500000e+00
      vertex   -4.070096e+01 -3.920500e+01 0.000000e+00
      vertex   -4.093934e+01 -3.951566e+01 2.500000e+00
    endloop
  endfacet
  facet normal -7.933533e-01 6.087614e-01 0.000000e+00
    outer loop
      vertex   -4.093934e+01 -3.951566e+01 2.500000e+00
      vertex   -4.070096e+01 -3.920500e+01 0.000000e+00
      vertex   -4.093934e+01 -3.951566e+01 0.000000e+00
    endloop
  endfacet
  facet normal -6.087614e-01 7.933533e-01 0.000000e+00
    outer loop
      vertex   -4.093934e+01 -3.951566e+01 2.500000e+00
      vertex   -4.093934e+01 -3.951566e+01 0.000000e+00
      vertex   -4.125000e+01 -3.975404e+01 2.500000e+00
    endloop
  endfacet
  facet normal -6.087614e-01 7.933533e-01 0.000000e+00
    outer loop
      vertex   -4.125000e+01 -3.975404e+01 2.500000e+00
      vertex   -4.093934e+01 -3.951566e+01 0.000000e+00
      vertex   -4.125000e+01 -3.975404e+01 0.000000e+00
    endloop
  endfacet
  facet normal -3.826834e-01 9.238795e-01 0.000000e+00
    outer loop
      vertex   -4.125000e+01 -3.975404e+01 2.500000e+00
      vertex   -4.125000e+01 -3.975404e+01 0.000000e+00
      vertex   -4.161177e+01 -3.990389e+01 2.500000e+00
    endloop
  endfacet
  facet normal -3.826834e-01 9.238795e-01 0.000000e+00
    outer loop
      vertex   -4.161177e+01 -3.990389e+01 2.500000e+00
      vertex   -4.125000e+01 -3.975404e+01 0.000000e+00
      vertex   -4.161177e+01 -3.990389e+01 0.000000e+00
    endloop
  endfacet
  facet normal -1.305262e-01 9.914449e-01 0.000000e+00
    outer loop
      vertex   -4.161177e+01 -3.990389e+01 2.500000e+00
      vertex   -4.161177e+01 -3.990389e+01 0.000000e+00
      vertex   -4.200000e+01 -3.995500e+01 2.500000e+00
    endloop
  endfacet
  facet normal -1.305262e-01 9.914449e-01 0.000000e+00
    outer loop
      vertex   -4.200000e+01 -3.995500e+01 2.500000e+00
      vertex   -4.161177e+01 -3.990389e+01 0.000000e+00
      vertex   -4.200000e+01 -3.995500e+01 0.000000e+00
    endloop
  endfacet
  facet normal 1.305262e-01 9.914449e-01 0.000000e+00
    outer loop
      vertex   -4.200000e+01 -3.995500e+01 2.500000e+00
      vertex   -4.200000e+01 -3.995500e+01 0.000000e+00
      vertex   -4.238823e+01 -3.990389e+01 2.500000e+00
    endloop
  endfacet
  facet normal 1.305262e-01 9.914449e-01 0.000000e+00
    outer loop
      vertex   -4.238823e+01 -3.990389e+01 2.500000e+00
      vertex   -4.200000e+01 -3.995500e+01 0.000000e+00
      vertex   -4.238823e+01 -3.990389e+01 0.000000e+00
    endloop
  endfacet
  facet normal 3.826834e-01 9.238795e-01 0.000000e+00
    outer loop
      vertex   -4.238823e+01 -3.990389e+01 2.500000e+00
      vertex   -4.238823e+01 -3.990389e+01 0.000000e+00
      vertex   -4.275000e+01 -3.975404e+01 2.500000e+00
    endloop
  endfacet
  facet normal 3.826834e-01 9.238795e-01 0.000000e+00
    outer loop
      vertex   -4.275000e+01 -3.975404e+01 2.500000e+00
      vertex   -4.238823e+01 -3.990389e+01 0.000000e+00
      vertex   -4.275000e+01 -3.975404e+01 0.000000e+00
    endloop
  endfacet
  facet normal 6.087614e-01 7.933533e-01 0.000000e+00
    outer loop
      vertex   -4.275000e+01 -3.975404e+01 2.500000e+00
      vertex   -4.275000e+01 -3.975404e+01 0.000000e+00
      vertex   -4.306066e+01 -3.951566e+01 2.500000e+00
    endloop
  endfacet
  facet normal 6.087614e-01 7.933533e-01 0.000000e+00
    outer loop
      vertex   -4.306066e+01 -3.951566e+01 2.500000e+00
      vertex   -4.275000e+01 -3.975404e+01 0.000000e+00
      vertex   -4.306066e+01 -3.951566e+01 0.000000e+00
    endloop
  endfacet
  facet normal 7.933533e-01 6.087614e-01 0.000000e+00
    outer loop
      vertex   -4.306066e+01 -3.951566e+01 2.500000e+00
      vertex   -4.306066e+01 -3.951566e+01 0.000000e+00
      vertex   -4.329904e+01 -3.920500e+01 2.500000e+00
    endloop
  endfacet
  facet normal 7.933533e-01 6.087614e-01 0.000000e+00
    outer loop
      vertex   -4.329904e+01 -3.920500e+01 2.500000e+00
      vertex   -4.306066e+01 -3.951566e+01 0.000000e+00
      vertex   -4.329904e+01 -3.920500e+01 0.000000e+00
    endloop
  endfacet
  facet normal 9.238795e-01 3.826834e-01 0.000000e+00
    outer loop
      vertex   -4.329904e+01 -3.920500e+01 2.500000e+00
      vertex   -4.329904e+01 -3.920500e+01 0.000000e+00
      vertex   -4.344889e+01 -3.884323e+01 2.500000e+00
    endloop
  endfacet
  facet normal 9.238795e-01 3.826834e-01 0.000000e+00
    outer loop
      vertex   -4.344889e+01 -3.884323e+01 2.500000e+00
      vertex   -4.329904e+01 -3.920500e+01 0.000000e+00
      vertex   -4.344889e+01 -3.884323e+01 0.000000e+00
    endloop
  endfacet
  facet normal 9.914449e-01 1.305262e-01 0.000000e+00
    outer loop
      vertex   -7.194889e+01 -3.884323e+01 2.500000e+00
      vertex   -7.194889e+01 -3.884323e+01 0.000000e+00
      vertex   -7.200000e+01 -3.845500e+01 2.500000e+00
    endloop
  endfacet
  facet normal 9.914449e-01 1.305262e-01 0.000000e+00
    outer loop
      vertex   -7.200000e+01 -3.845500e+01 2.500000e+00
      vertex   -7.194889e+01 -3.884323e+01 0.000000e+00
      vertex   -7.200000e+01 -3.845500e+01 0.000000e+00
    endloop
  endfacet
  facet normal 9.914449e-01 -1.305262e-01 0.000000e+00
    outer loop
      vertex   -7.200000e+01 -3.845500e+01 2.500000e+00
      vertex   -7.200000e+01 -3.845500e+01 0.000000e+00
      vertex   -7.194889e+01 -3.806677e+01 2.500000e+00
    endloop
  endfacet
  facet normal 9.914449e-01 -1.305262e-01 0.000000e+00
    outer loop
      vertex   -7.194889e+01 -3.806677e+01 2.500000e+00
      vertex   -7.200000e+01 -3.845500e+01 0.000000e+00
      vertex   -7.194889e+01 -3.806677e+01 0.000000e+00
    endloop
  endfacet
  facet normal 9.238795e-01 -3.826834e-01 0.000000e+00
    outer loop
      vertex   -7.194889e+01 -3.806677e+01 2.500000e+00
      vertex   -7.194889e+01 -3.806677e+01 0.000000e+00
      vertex   -7.179904e+01 -3.770500e+01 2.500000e+00
    endloop
  endfacet
  facet normal 9.238795e-01 -3.826834e-01 0.000000e+00
    outer loop
      vertex   -7.179904e+01 -3.770500e+01 2.500000e+00
      vertex   -7.194889e+01 -3.806677e+01 0.000000e+00
      vertex   -7.179904e+01 -3.770500e+01 0.000000e+00
    endloop
  endfacet
  facet normal 7.933533e-01 -6.087614e-01 0.000000e+00
    outer loop
      vertex   -7.179904e+01 -3.770500e+01 2.500000e+00
      vertex   -7.179904e+01 -3.770500e+01 0.000000e+00
      vertex   -7.156066e+01 -3.739434e+01 2.500000e+00
    endloop
  endfacet
  facet normal 7.933533e-01 -6.087614e-01 0.000000e+00
    outer loop
      vertex   -7.156066e+01 -3.739434e+01 2.500000e+00
      vertex   -7.179904e+01 -3.770500e+01 0.000000e+00
      vertex   -7.156066e+01 -3.739434e+01 0.000000e+00
    endloop
  endfacet
  facet normal 6.087614e-01 -7.933533e-01 0.000000e+00
    outer loop
      vertex   -7.156066e+01 -3.739434e+01 2.500000e+00
      vertex   -7.156066e+01 -3.739434e+01 0.000000e+00
      vertex   -7.125000e+01 -3.715596e+01 2.500000e+00
    endloop
  endfacet
  facet normal 6.087614e-01 -7.933533e-01 0.000000e+00
    outer loop
      vertex   -7.125000e+01 -3.715596e+01 2.500000e+00
      vertex   -7.156066e+01 -3.739434e+01 0.000000e+00
      vertex   -7.125000e+01 -3.715596e+01 0.000000e+00
    endloop
  endfacet
  facet normal 3.826834e-01 -9.238795e-01 0.000000e+00
    outer loop
      vertex   -7.125000e+01 -3.715596e+01 2.500000e+00
      vertex   -7.125000e+01 -3.715596e+01 0.000000e+00
      vertex   -7.088823e+01 -3.700611e+01 2.500000e+00
    endloop
  endfacet
  facet normal 3.826834e-01 -9.238795e-01 0.000000e+00
    outer loop
      vertex   -7.088823e+01 -3.700611e+01 2.500000e+00
      vertex   -7.125000e+01 -3.715596e+01 0.000000e+00
      vertex   -7.088823e+01 -3.700611e+01 0.000000e+00
    endloop
  endfacet
  facet normal 1.305262e-01 -9.914449e-01 0.000000e+00
    outer loop
      vertex   -7.088823e+01 -3.700611e+01 2.500000e+00
      vertex   -7.088823e+01 -3.700611e+01 0.000000e+00
      vertex   -7.050000e+01 -3.695500e+01 2.500000e+00
    endloop
  endfacet
  facet normal 1.305262e-01 -9.914449e-01 0.000000e+00
    outer loop
      vertex   -7.050000e+01 -3.695500e+01 2.500000e+00
      vertex   -7.088823e+01 -3.700611e+01 0.000000e+00
      vertex   -7.050000e+01 -3.695500e+01 0.000000e+00
    endloop
  endfacet
  facet normal -1.305262e-01 -9.914449e-01 -0.000000e+00
    outer loop
      vertex   -7.050000e+01 -3.695500e+01 2.500000e+00
      vertex   -7.050000e+01 -3.695500e+01 0.000000e+00
      vertex   -7.011177e+01 -3.700611e+01 2.500000e+00
    endloop
  endfacet
  facet normal -1.305262e-01 -9.914449e-01 -0.000000e+00
    outer loop
      vertex   -7.011177e+01 -3.700611e+01 2.500000e+00
      vertex   -7.050000e+01 -3.695500e+01 0.000000e+00
      vertex   -7.011177e+01 -3.700611e+01 0.000000e+00
    endloop
  endfacet
  facet normal -3.826834e-01 -9.238795e-01 -0.000000e+00
    outer loop
      vertex   -7.011177e+01 -3.700611e+01 2.500000e+00
      vertex   -7.011177e+01 -3.700611e+01 0.000000e+00
      vertex   -6.975000e+01 -3.715596e+01 2.500000e+00
    endloop
  endfacet
  facet normal -3.826834e-01 -9.238795e-01 -0.000000e+00
    outer loop
      vertex   -6.975000e+01 -3.715596e+01 2.500000e+00
      vertex   -7.011177e+01 -3.700611e+01 0.000000e+00
      vertex   -6.975000e+01 -3.715596e+01 0.000000e+00
    endloop
  endfacet
  facet normal -6.087614e-01 -7.933533e-01 -0.000000e+00
    outer loop
      vertex   -6.975000e+01 -3.715596e+01 2.500000e+00
      vertex   -6.975000e+01 -3.715596e+01 0.000000e+00
      vertex   -6.943934e+01 -3.739434e+01 2.500000e+00
    endloop
  endfacet
  facet normal -6.087614e-01 -7.933533e-01 -0.000000e+00
    outer loop
      vertex   -6.943934e+01 -3.739434e+01 2.500000e+00
      vertex   -6.975000e+01 -3.715596e+01 0.000000e+00
      vertex   -6.943934e+01 -3.739434e+01 0.000000e+00
    endloop
  endfacet
  facet normal -7.933533e-01 -6.087614e-01 -0.000000e+00
    outer loop
      vertex   -6.943934e+01 -3.739434e+01 2.500000e+00
      vertex   -6.943934e+01 -3.739434e+01 0.000000e+00
      vertex   -6.920096e+01 -3.770500e+01 2.500000e+00
    endloop
  endfacet
  facet normal -7.933533e-01 -6.087614e-01 -0.000000e+00
    outer loop
      vertex   -6.920096e+01 -3.770500e+01 2.500000e+00
      vertex   -6.943934e+01 -3.739434e+01 0.000000e+00
      vertex   -6.920096e+01 -3.770500e+01 0.000000e+00
    endloop
  endfacet
  facet normal -9.238795e-01 -3.826834e-01 -0.000000e+00
    outer loop
      vertex   -6.920096e+01 -3.770500e+01 2.500000e+00
      vertex   -6.920096e+01 -3.770500e+01 0.000000e+00
      vertex   -6.905111e+01 -3.806677e+01 2.500000e+00
    endloop
  endfacet
  facet normal -9.238795e-01 -3.826834e-01 -0.000000e+00
    outer loop
      vertex   -6.905111e+01 -3.806677e+01 2.500000e+00
      vertex   -6.920096e+01 -3.770500e+01 0.000000e+00
      vertex   -6.905111e+01 -3.806677e+01 0.000000e+00
    endloop
  endfacet
  facet normal -9.914449e-01 -1.305262e-01 -0.000000e+00
    outer loop
      vertex   -6.905111e+01 -3.806677e+01 2.500000e+00
      vertex   -6.905111e+01 -3.806677e+01 0.000000e+00
      vertex   -6.900000e+01 -3.845500e+01 2.500000e+00
    endloop
  endfacet
  facet normal -9.914449e-01 -1.305262e-01 -0.000000e+00
    outer loop
      vertex   -6.900000e+01 -3.845500e+01 2.500000e+00
      vertex   -6.905111e+01 -3.806677e+01 0.000000e+00
      vertex   -6.900000e+01 -3.845500e+01 0.000000e+00
    endloop
  endfacet
  facet normal -9.914449e-01 1.305262e-01 0.000000e+00
    outer loop
      vertex   -6.900000e+01 -3.845500e+01 2.500000e+00
      vertex   -6.900000e+01 -3.845500e+01 0.000000e+00
      vertex   -6.905111e+01 -3.884323e+01 2.500000e+00
    endloop
  endfacet
  facet normal -9.914449e-01 1.305262e-01 0.000000e+00
    outer loop
      vertex   -6.905111e+01 -3.884323e+01 2.500000e+00
      vertex   -6.900000e+01 -3.845500e+01 0.000000e+00
      vertex   -6.905111e+01 -3.884323e+01 0.000000e+00
    endloop
  endfacet
  facet normal -9.238795e-01 3.826834e-01 0.000000e+00
    outer loop
      vertex   -6.905111e+01 -3.884323e+01 2.500000e+00
      vertex   -6.905111e+01 -3.884323e+01 0.000000e+00
      vertex   -6.920096e+01 -3.920500e+01 2.500000e+00
    endloop
  endfacet
  facet normal -9.238795e-01 3.826834e-01 0.000000e+00
    outer loop
      vertex   -6.920096e+01 -3.920500e+01 2.500000e+00
      vertex   -6.905111e+01 -3.884323e+01 0.000000e+00
      vertex   -6.920096e+01 -3.920500e+01 0.000000e+00
    endloop
  endfacet
  facet normal -7.933533e-01 6.087614e-01 0.000000e+00
    outer loop
      vertex   -6.920096e+01 -3.920500e+01 2.500000e+00
      vertex   -6.920096e+01 -3.920500e+01 0.000000e+00
      vertex   -6.943934e+01 -3.951566e+01 2.500000e+00
    endloop
  endfacet
  facet normal -7.933533e-01 6.087614e-01 0.000000e+00
    outer loop
      vertex   -6.943934e+01 -3.951566e+01 2.500000e+00
      vertex   -6.920096e+01 -3.920500e+01 0.000000e+00
      vertex   -6.943934e+01 -3.951566e+01 0.000000e+00
    endloop
  endfacet
  facet normal -6.087614e-01 7.933533e-01 0.000000e+00
    outer loop
      vertex   -6.943934e+01 -3.951566e+01 2.500000e+00
      vertex   -6.943934e+01 -3.951566e+01 0.000000e+00
      vertex   -6.975000e+01 -3.975404e+01 2.500000e+00
    endloop
  endfacet
  facet normal -6.087614e-01 7.933533e-01 0.000000e+00
    outer loop
      vertex   -6.975000e+01 -3.975404e+01 2.500000e+00
      vertex   -6.943934e+01 -3.951566e+01 0.000000e+00
      vertex   -6.975000e+01 -3.975404e+01 0.000000e+00
    endloop
  endfacet
  facet normal -3.826834e-01 9.238795e-01 0.000000e+00
    outer loop
      vertex   -6.975000e+01 -3.975404e+01 2.500000e+00
      vertex   -6.975000e+01 -3.975404e+01 0.000000e+00
      vertex   -7.011177e+01 -3.990389e+01 2.500000e+00
    endloop
  endfacet
  facet normal -3.826834e-01 9.238795e-01 0.000000e+00
    outer loop
      vertex   -7.011177e+01 -3.990389e+01 2.500000e+00
      vertex   -6.975000e+01 -3.975404e+01 0.000000e+00
      vertex   -7.011177e+01 -3.990389e+01 0.000000e+00
    endloop
  endfacet
  facet normal -1.305262e-01 9.914449e-01 0.000000e+00
    outer loop
      vertex   -7.011177e+01 -3.990389e+01 2.500000e+00
      vertex   -7.011177e+01 -3.990389e+01 0.000000e+00
      vertex   -7.050000e+01 -3.995500e+01 2.500000e+00
    endloop
  endfacet
  facet normal -1.305262e-01 9.914449e-01 0.000000e+00
    outer loop
      vertex   -7.050000e+01 -3.995500e+01 2.500000e+00
      vertex   -7.011177e+01 -3.990389e+01 0.000000e+00
      vertex   -7.050000e+01 -3.995500e+01 0.000000e+00
    endloop
  endfacet
  facet normal 1.305262e-01 9.914449e-01 0.000000e+00
    outer loop
      vertex   -7.050000e+01 -3.995500e+01 2.500000e+00
      vertex   -7.050000e+01 -3.995500e+01 0.000000e+00
      vertex   -7.088823e+01 -3.990389e+01 2.500000e+00
    endloop
  endfacet
  facet normal 1.305262e-01 9.914449e-01 0.000000e+00
    outer loop
      vertex   -7.088823e+01 -3.990389e+01 2.500000e+00
      vertex   -7.050000e+01 -3.995500e+01 0.000000e+00
      vertex   -7.088823e+01 -3.990389e+01 0.000000e+00
    endloop
  endfacet
  facet normal 3.826834e-01 9.238795e-01 0.000000e+00
    outer loop
      vertex   -7.088823e+01 -3.990389e+01 2.500000e+00
      vertex   -7.088823e+01 -3.990389e+01 0.000000e+00
      vertex   -7.125000e+01 -3.975404e+01 2.500000e+00
    endloop
  endfacet
  facet normal 3.826834e-01 9.238795e-01 0.000000e+00
    outer loop
      vertex   -7.125000e+01 -3.975404e+01 2.500000e+00
      vertex   -7.088823e+01 -3.990389e+01 0.000000e+00
      vertex   -7.125000e+01 -3.975404e+01 0.000000e+00
    endloop
  endfacet
  facet normal 6.087614e-01 7.933533e-01 0.000000e+00
    outer loop
      vertex   -7.125000e+01 -3.975404e+01 2.500000e+00
      vertex   -7.125000e+01 -3.975404e+01 0.000000e+00
      vertex   -7.156066e+01 -3.951566e+01 2.500000e+00
    endloop
  endfacet
  facet normal 6.087614e-01 7.933533e-01 0.000000e+00
    outer loop
      vertex   -7.156066e+01 -3.951566e+01 2.500000e+00
      vertex   -7.125000e+01 -3.975404e+01 0.000000e+00
      vertex   -7.156066e+01 -3.951566e+01 0.000000e+00
    endloop
  endfacet
  facet normal 7.933533e-01 6.087614e-01 0.000000e+00
    outer loop
      vertex   -7.156066e+01 -3.951566e+01 2.500000e+00
      vertex   -7.156066e+01 -3.951566e+01 0.000000e+00
      vertex   -7.179904e+01 -3.920500e+01 2.500000e+00
    endloop
  endfacet
  facet normal 7.933533e-01 6.087614e-01 0.000000e+00
    outer loop
      vertex   -7.179904e+01 -3.920500e+01 2.500000e+00
      vertex   -7.156066e+01 -3.951566e+01 0.000000e+00
      vertex   -7.179904e+01 -3.920500e+01 0.000000e+00
    endloop
  endfacet
  facet normal 9.238795e-01 3.826834e-01 0.000000e+00
    outer loop
      vertex   -7.179904e+01 -3.920500e+01 2.500000e+00
      vertex   -7.179904e+01 -3.920500e+01 0.000000e+00
      vertex   -7.194889e+01 -3.884323e+01 2.500000e+00
    endloop
  endfacet
  facet normal 9.238795e-01 3.826834e-01 0.000000e+00
    outer loop
      vertex   -7.194889e+01 -3.884323e+01 2.500000e+00
      vertex   -7.179904e+01 -3.920500e+01 0.000000e+00
      vertex   -7.194889e+01 -3.884323e+01 0.000000e+00
    endloop
  endfacet
  facet normal 0.000000e+00 -1.000000e+00 0.000000e+00
    outer loop
      vertex   -2.480000e+02 -7.600000e+01 0.000000e+00
      vertex   0.000000e+00 -7.600000e+01 0.000000e+00
      vertex   -2.480000e+02 -7.600000e+01 2.500000e+00
    endloop
  endfacet
  facet normal 0.000000e+00 -1.000000e+00 0.000000e+00
    outer loop
      vertex   -2.480000e+02 -7.600000e+01 2.500000e+00
      vertex   0.000000e+00 -7.600000e+01 0.000000e+00
      vertex   0.000000e+00 -7.600000e+01 2.500000e+00
    endloop
  endfacet
  facet normal -1.000000e+00 0.000000e+00 0.000000e+00
    outer loop
      vertex   -2.480000e+02 0.000000e+00 0.000000e+00
      vertex   -2.480000e+02 -7.600000e+01 0.000000e+00
      vertex   -2.480000e+02 0.000000e+00 2.500000e+00
    endloop
  endfacet
  facet normal -1.000000e+00 -0.000000e+00 0.000000e+00
    outer loop
      vertex   -2.480000e+02 0.000000e+00 2.500000e+00
      vertex   -2.480000e+02 -7.600000e+01 0.000000e+00
      vertex   -2.480000e+02 -7.600000e+01 2.500000e+00
    endloop
  endfacet
  facet normal 0.000000e+00 1.000000e+00 -0.000000e+00
    outer loop
      vertex   0.000000e+00 0.000000e+00 0.000000e+00
      vertex   -2.480000e+02 0.000000e+00 0.000000e+00
      vertex   0.000000e+00 0.000000e+00 2.500000e+00
    endloop
  endfacet
  facet normal 0.000000e+00 1.000000e+00 0.000000e+00
    outer loop
      vertex   0.000000e+00 0.000000e+00 2.500000e+00
      vertex   -2.480000e+02 0.000000e+00 0.000000e+00
      vertex   -2.480000e+02 0.000000e+00 2.500000e+00
    endloop
  endfacet
  facet normal 1.000000e+00 0.000000e+00 0.000000e+00
    outer loop
      vertex   0.000000e+00 -7.600000e+01 0.000000e+00
      vertex   0.000000e+00 0.000000e+00 0.000000e+00
      vertex   0.000000e+00 -7.600000e+01 2.500000e+00
    endloop
  endfacet
  facet normal 1.000000e+00 -0.000000e+00 0.000000e+00
    outer loop
      vertex   0.000000e+00 -7.600000e+01 2.500000e+00
      vertex   0.000000e+00 0.000000e+00 0.000000e+00
      vertex   0.000000e+00 0.000000e+00 2.500000e+00
    endloop
  endfacet
  facet normal -0.000000e+00 0.000000e+00 1.000000e+00
    outer loop
      vertex   -6.250000e+01 -4.405000e+01 2.500000e+00
      vertex   0.000000e+00 -7.600000e+01 2.500000e+00
      vertex   -5.000000e+01 -4.405000e+01 2.500000e+00
    endloop
  endfacet
  facet normal -0.000000e+00 0.000000e+00 1.000000e+00
    outer loop
      vertex   -5.000000e+01 -4.405000e+01 2.500000e+00
      vertex   0.000000e+00 -7.600000e+01 2.500000e+00
      vertex   -4.161177e+01 -3.990389e+01 2.500000e+00
    endloop
  endfacet
  facet normal 0.000000e+00 0.000000e+00 1.000000e+00
    outer loop
      vertex   -5.000000e+01 -4.405000e+01 2.500000e+00
      vertex   -4.161177e+01 -3.990389e+01 2.500000e+00
      vertex   -4.200000e+01 -3.995500e+01 2.500000e+00
    endloop
  endfacet
  facet normal 0.000000e+00 0.000000e+00 1.000000e+00
    outer loop
      vertex   -6.250000e+01 -3.295000e+01 2.500000e+00
      vertex   -6.900000e+01 -3.845500e+01 2.500000e+00
      vertex   -6.250000e+01 -4.405000e+01 2.500000e+00
    endloop
  endfacet
  facet normal 0.000000e+00 0.000000e+00 1.000000e+00
    outer loop
      vertex   -6.250000e+01 -4.405000e+01 2.500000e+00
      vertex   -6.900000e+01 -3.845500e+01 2.500000e+00
      vertex   -6.905111e+01 -3.884323e+01 2.500000e+00
    endloop
  endfacet
  facet normal 0.000000e+00 0.000000e+00 1.000000e+00
    outer loop
      vertex   -6.250000e+01 -4.405000e+01 2.500000e+00
      vertex   -6.905111e+01 -3.884323e+01 2.500000e+00
      vertex   -6.920096e+01 -3.920500e+01 2.500000e+00
    endloop
  endfacet
  facet normal 0.000000e+00 -0.000000e+00 1.000000e+00
    outer loop
      vertex   -5.000000e+01 -3.295000e+01 2.500000e+00
      vertex   0.000000e+00 0.000000e+00 2.500000e+00
      vertex   -6.250000e+01 -3.295000e+01 2.500000e+00
    endloop
  endfacet
  facet normal 0.000000e+00 -0.000000e+00 1.000000e+00
    outer loop
      vertex   -6.250000e+01 -3.295000e+01 2.500000e+00
      vertex   0.000000e+00 0.000000e+00 2.500000e+00
      vertex   -2.480000e+02 0.000000e+00 2.500000e+00
    endloop
  endfacet
  facet normal 0.000000e+00 0.000000e+00 1.000000e+00
    outer loop
      vertex   -6.250000e+01 -3.295000e+01 2.500000e+00
      vertex   -2.480000e+02 0.000000e+00 2.500000e+00
      vertex   -7.088823e+01 -3.700611e+01 2.500000e+00
    endloop
  endfacet
  facet normal 0.000000e+00 0.000000e+00 1.000000e+00
    outer loop
      vertex   -7.088823e+01 -3.700611e+01 2.500000e+00
      vertex   -2.480000e+02 0.000000e+00 2.500000e+00
      vertex   -7.125000e+01 -3.715596e+01 2.500000e+00
    endloop
  endfacet
  facet normal 0.000000e+00 0.000000e+00 1.000000e+00
    outer loop
      vertex   -7.125000e+01 -3.715596e+01 2.500000e+00
      vertex   -2.480000e+02 0.000000e+00 2.500000e+00
      vertex   -7.156066e+01 -3.739434e+01 2.500000e+00
    endloop
  endfacet
  facet normal 0.000000e+00 0.000000e+00 1.000000e+00
    outer loop
      vertex   -7.156066e+01 -3.739434e+01 2.500000e+00
      vertex   -2.480000e+02 0.000000e+00 2.500000e+00
      vertex   -7.179904e+01 -3.770500e+01 2.500000e+00
    endloop
  endfacet
  facet normal 0.000000e+00 0.000000e+00 1.000000e+00
    outer loop
      vertex   -7.179904e+01 -3.770500e+01 2.500000e+00
      vertex   -2.480000e+02 0.000000e+00 2.500000e+00
      vertex   -7.194889e+01 -3.806677e+01 2.500000e+00
    endloop
  endfacet
  facet normal 0.000000e+00 0.000000e+00 1.000000e+00
    outer loop
      vertex   -7.194889e+01 -3.806677e+01 2.500000e+00
      vertex   -2.480000e+02 0.000000e+00 2.500000e+00
      vertex   -7.200000e+01 -3.845500e+01 2.500000e+00
    endloop
  endfacet
  facet normal 0.000000e+00 0.000000e+00 1.000000e+00
    outer loop
      vertex   -7.200000e+01 -3.845500e+01 2.500000e+00
      vertex   -2.480000e+02 0.000000e+00 2.500000e+00
      vertex   -2.480000e+02 -7.600000e+01 2.500000e+00
    endloop
  endfacet
  facet normal 0.000000e+00 0.000000e+00 1.000000e+00
    outer loop
      vertex   -7.200000e+01 -3.845500e+01 2.500000e+00
      vertex   -2.480000e+02 -7.600000e+01 2.500000e+00
      vertex   -7.194889e+01 -3.884323e+01 2.500000e+00
    endloop
  endfacet
  facet normal 0.000000e+00 0.000000e+00 1.000000e+00
    outer loop
      vertex   -7.194889e+01 -3.884323e+01 2.500000e+00
      vertex   -2.480000e+02 -7.600000e+01 2.500000e+00
      vertex   -7.179904e+01 -3.920500e+01 2.500000e+00
    endloop
  endfacet
  facet normal 0.000000e+00 0.000000e+00 1.000000e+00
    outer loop
      vertex   -7.179904e+01 -3.920500e+01 2.500000e+00
      vertex   -2.480000e+02 -7.600000e+01 2.500000e+00
      vertex   -7.156066e+01 -3.951566e+01 2.500000e+00
    endloop
  endfacet
  facet normal 0.000000e+00 0.000000e+00 1.000000e+00
    outer loop
      vertex   -7.156066e+01 -3.951566e+01 2.500000e+00
      vertex   -2.480000e+02 -7.600000e+01 2.500000e+00
      vertex   -7.125000e+01 -3.975404e+01 2.500000e+00
    endloop
  endfacet
  facet normal 0.000000e+00 0.000000e+00 1.000000e+00
    outer loop
      vertex   -7.125000e+01 -3.975404e+01 2.500000e+00
      vertex   -2.480000e+02 -7.600000e+01 2.500000e+00
      vertex   -6.250000e+01 -4.405000e+01 2.500000e+00
    endloop
  endfacet
  facet normal 0.000000e+00 0.000000e+00 1.000000e+00
    outer loop
      vertex   -7.125000e+01 -3.975404e+01 2.500000e+00
      vertex   -6.250000e+01 -4.405000e+01 2.500000e+00
      vertex   -7.088823e+01 -3.990389e+01 2.500000e+00
    endloop
  endfacet
  facet normal 0.000000e+00 0.000000e+00 1.000000e+00
    outer loop
      vertex   -7.088823e+01 -3.990389e+01 2.500000e+00
      vertex   -6.250000e+01 -4.405000e+01 2.500000e+00
      vertex   -7.050000e+01 -3.995500e+01 2.500000e+00
    endloop
  endfacet
  facet normal -0.000000e+00 0.000000e+00 1.000000e+00
    outer loop
      vertex   -7.050000e+01 -3.995500e+01 2.500000e+00
      vertex   -6.250000e+01 -4.405000e+01 2.500000e+00
      vertex   -7.011177e+01 -3.990389e+01 2.500000e+00
    endloop
  endfacet
  facet normal -0.000000e+00 0.000000e+00 1.000000e+00
    outer loop
      vertex   -7.011177e+01 -3.990389e+01 2.500000e+00
      vertex   -6.250000e+01 -4.405000e+01 2.500000e+00
      vertex   -6.975000e+01 -3.975404e+01 2.500000e+00
    endloop
  endfacet
  facet normal -0.000000e+00 0.000000e+00 1.000000e+00
    outer loop
      vertex   -6.975000e+01 -3.975404e+01 2.500000e+00
      vertex   -6.250000e+01 -4.405000e+01 2.500000e+00
      vertex   -6.943934e+01 -3.951566e+01 2.500000e+00
    endloop
  endfacet
  facet normal -0.000000e+00 0.000000e+00 1.000000e+00
    outer loop
      vertex   -6.943934e+01 -3.951566e+01 2.500000e+00
      vertex   -6.250000e+01 -4.405000e+01 2.500000e+00
      vertex   -6.920096e+01 -3.920500e+01 2.500000e+00
    endloop
  endfacet
  facet normal 0.000000e+00 0.000000e+00 1.000000e+00
    outer loop
      vertex   -5.000000e+01 -4.405000e+01 2.500000e+00
      vertex   -4.350000e+01 -3.845500e+01 2.500000e+00
      vertex   -5.000000e+01 -3.295000e+01 2.500000e+00
    endloop
  endfacet
  facet normal 0.000000e+00 0.000000e+00 1.000000e+00
    outer loop
      vertex   -5.000000e+01 -3.295000e+01 2.500000e+00
      vertex   -4.350000e+01 -3.845500e+01 2.500000e+00
      vertex   -4.344889e+01 -3.806677e+01 2.500000e+00
    endloop
  endfacet
  facet normal 0.000000e+00 0.000000e+00 1.000000e+00
    outer loop
      vertex   -5.000000e+01 -3.295000e+01 2.500000e+00
      vertex   -4.344889e+01 -3.806677e+01 2.500000e+00
      vertex   -4.329904e+01 -3.770500e+01 2.500000e+00
    endloop
  endfacet
  facet normal 0.000000e+00 -0.000000e+00 1.000000e+00
    outer loop
      vertex   -4.329904e+01 -3.770500e+01 2.500000e+00
      vertex   -4.306066e+01 -3.739434e+01 2.500000e+00
      vertex   -5.000000e+01 -3.295000e+01 2.500000e+00
    endloop
  endfacet
  facet normal 0.000000e+00 0.000000e+00 1.000000e+00
    outer loop
      vertex   -5.000000e+01 -3.295000e+01 2.500000e+00
      vertex   -4.306066e+01 -3.739434e+01 2.500000e+00
      vertex   -4.275000e+01 -3.715596e+01 2.500000e+00
    endloop
  endfacet
  facet normal 0.000000e+00 0.000000e+00 1.000000e+00
    outer loop
      vertex   -5.000000e+01 -3.295000e+01 2.500000e+00
      vertex   -4.275000e+01 -3.715596e+01 2.500000e+00
      vertex   -4.238823e+01 -3.700611e+01 2.500000e+00
    endloop
  endfacet
  facet normal 0.000000e+00 -0.000000e+00 1.000000e+00
    outer loop
      vertex   -4.238823e+01 -3.700611e+01 2.500000e+00
      vertex   -4.200000e+01 -3.695500e+01 2.500000e+00
      vertex   -5.000000e+01 -3.295000e+01 2.500000e+00
    endloop
  endfacet
  facet normal 0.000000e+00 0.000000e+00 1.000000e+00
    outer loop
      vertex   -5.000000e+01 -3.295000e+01 2.500000e+00
      vertex   -4.200000e+01 -3.695500e+01 2.500000e+00
      vertex   -4.161177e+01 -3.700611e+01 2.500000e+00
    endloop
  endfacet
  facet normal -0.000000e+00 0.000000e+00 1.000000e+00
    outer loop
      vertex   -5.000000e+01 -3.295000e+01 2.500000e+00
      vertex   -4.161177e+01 -3.700611e+01 2.500000e+00
      vertex   0.000000e+00 0.000000e+00 2.500000e+00
    endloop
  endfacet
  facet normal 0.000000e+00 0.000000e+00 1.000000e+00
    outer loop
      vertex   0.000000e+00 0.000000e+00 2.500000e+00
      vertex   -4.161177e+01 -3.700611e+01 2.500000e+00
      vertex   -4.125000e+01 -3.715596e+01 2.500000e+00
    endloop
  endfacet
  facet normal 0.000000e+00 0.000000e+00 1.000000e+00
    outer loop
      vertex   0.000000e+00 0.000000e+00 2.500000e+00
      vertex   -4.125000e+01 -3.715596e+01 2.500000e+00
      vertex   -4.093934e+01 -3.739434e+01 2.500000e+00
    endloop
  endfacet
  facet normal -0.000000e+00 0.000000e+00 1.000000e+00
    outer loop
      vertex   -4.093934e+01 -3.739434e+01 2.500000e+00
      vertex   -4.070096e+01 -3.770500e+01 2.500000e+00
      vertex   0.000000e+00 0.000000e+00 2.500000e+00
    endloop
  endfacet
  facet normal 0.000000e+00 0.000000e+00 1.000000e+00
    outer loop
      vertex   0.000000e+00 0.000000e+00 2.500000e+00
      vertex   -4.070096e+01 -3.770500e+01 2.500000e+00
      vertex   -4.055111e+01 -3.806677e+01 2.500000e+00
    endloop
  endfacet
  facet normal 0.000000e+00 0.000000e+00 1.000000e+00
    outer loop
      vertex   0.000000e+00 0.000000e+00 2.500000e+00
      vertex   -4.055111e+01 -3.806677e+01 2.500000e+00
      vertex   -4.050000e+01 -3.845500e+01 2.500000e+00
    endloop
  endfacet
  facet normal 0.000000e+00 0.000000e+00 1.000000e+00
    outer loop
      vertex   0.000000e+00 0.000000e+00 2.500000e+00
      vertex   -4.050000e+01 -3.845500e+01 2.500000e+00
      vertex   0.000000e+00 -7.600000e+01 2.500000e+00
    endloop
  endfacet
  facet normal 0.000000e+00 0.000000e+00 1.000000e+00
    outer loop
      vertex   0.000000e+00 -7.600000e+01 2.500000e+00
      vertex   -4.050000e+01 -3.845500e+01 2.500000e+00
      vertex   -4.055111e+01 -3.884323e+01 2.500000e+00
    endloop
  endfacet
  facet normal 0.000000e+00 0.000000e+00 1.000000e+00
    outer loop
      vertex   0.000000e+00 -7.600000e+01 2.500000e+00
      vertex   -4.055111e+01 -3.884323e+01 2.500000e+00
      vertex   -4.070096e+01 -3.920500e+01 2.500000e+00
    endloop
  endfacet
  facet normal 0.000000e+00 0.000000e+00 1.000000e+00
    outer loop
      vertex   -4.070096e+01 -3.920500e+01 2.500000e+00
      vertex   -4.093934e+01 -3.951566e+01 2.500000e+00
      vertex   0.000000e+00 -7.600000e+01 2.500000e+00
    endloop
  endfacet
  facet normal 0.000000e+00 0.000000e+00 1.000000e+00
    outer loop
      vertex   0.000000e+00 -7.600000e+01 2.500000e+00
      vertex   -4.093934e+01 -3.951566e+01 2.500000e+00
      vertex   -4.125000e+01 -3.975404e+01 2.500000e+00
    endloop
  endfacet
  facet normal 0.000000e+00 0.000000e+00 1.000000e+00
    outer loop
      vertex   0.000000e+00 -7.600000e+01 2.500000e+00
      vertex   -4.125000e+01 -3.975404e+01 2.500000e+00
      vertex   -4.161177e+01 -3.990389e+01 2.500000e+00
    endloop
  endfacet
  facet normal 0.000000e+00 0.000000e+00 1.000000e+00
    outer loop
      vertex   -4.200000e+01 -3.995500e+01 2.500000e+00
      vertex   -4.238823e+01 -3.990389e+01 2.500000e+00
      vertex   -5.000000e+01 -4.405000e+01 2.500000e+00
    endloop
  endfacet
  facet normal 0.000000e+00 0.000000e+00 1.000000e+00
    outer loop
      vertex   -5.000000e+01 -4.405000e+01 2.500000e+00
      vertex   -4.238823e+01 -3.990389e+01 2.500000e+00
      vertex   -4.275000e+01 -3.975404e+01 2.500000e+00
    endloop
  endfacet
  facet normal 0.000000e+00 0.000000e+00 1.000000e+00
    outer loop
      vertex   -5.000000e+01 -4.405000e+01 2.500000e+00
      vertex   -4.275000e+01 -3.975404e+01 2.500000e+00
      vertex   -4.306066e+01 -3.951566e+01 2.500000e+00
    endloop
  endfacet
  facet normal 0.000000e+00 0.000000e+00 1.000000e+00
    outer loop
      vertex   -4.306066e+01 -3.951566e+01 2.500000e+00
      vertex   -4.329904e+01 -3.920500e+01 2.500000e+00
      vertex   -5.000000e+01 -4.405000e+01 2.500000e+00
    endloop
  endfacet
  facet normal 0.000000e+00 0.000000e+00 1.000000e+00
    outer loop
      vertex   -5.000000e+01 -4.405000e+01 2.500000e+00
      vertex   -4.329904e+01 -3.920500e+01 2.500000e+00
      vertex   -4.344889e+01 -3.884323e+01 2.500000e+00
    endloop
  endfacet
  facet normal 0.000000e+00 0.000000e+00 1.000000e+00
    outer loop
      vertex   -5.000000e+01 -4.405000e+01 2.500000e+00
      vertex   -4.344889e+01 -3.884323e+01 2.500000e+00
      vertex   -4.350000e+01 -3.845500e+01 2.500000e+00
    endloop
  endfacet
  facet normal 0.000000e+00 0.000000e+00 1.000000e+00
    outer loop
      vertex   -7.088823e+01 -3.700611e+01 2.500000e+00
      vertex   -7.050000e+01 -3.695500e+01 2.500000e+00
      vertex   -6.250000e+01 -3.295000e+01 2.500000e+00
    endloop
  endfacet
  facet normal 0.000000e+00 0.000000e+00 1.000000e+00
    outer loop
      vertex   -6.250000e+01 -3.295000e+01 2.500000e+00
      vertex   -7.050000e+01 -3.695500e+01 2.500000e+00
      vertex   -7.011177e+01 -3.700611e+01 2.500000e+00
    endloop
  endfacet
  facet normal 0.000000e+00 0.000000e+00 1.000000e+00
    outer loop
      vertex   -6.250000e+01 -3.295000e+01 2.500000e+00
      vertex   -7.011177e+01 -3.700611e+01 2.500000e+00
      vertex   -6.975000e+01 -3.715596e+01 2.500000e+00
    endloop
  endfacet
  facet normal -0.000000e+00 0.000000e+00 1.000000e+00
    outer loop
      vertex   -6.975000e+01 -3.715596e+01 2.500000e+00
      vertex   -6.943934e+01 -3.739434e+01 2.500000e+00
      vertex   -6.250000e+01 -3.295000e+01 2.500000e+00
    endloop
  endfacet
  facet normal 0.000000e+00 0.000000e+00 1.000000e+00
    outer loop
      vertex   -6.250000e+01 -3.295000e+01 2.500000e+00
      vertex   -6.943934e+01 -3.739434e+01 2.500000e+00
      vertex   -6.920096e+01 -3.770500e+01 2.500000e+00
    endloop
  endfacet
  facet normal 0.000000e+00 0.000000e+00 1.000000e+00
    outer loop
      vertex   -6.250000e+01 -3.295000e+01 2.500000e+00
      vertex   -6.920096e+01 -3.770500e+01 2.500000e+00
      vertex   -6.905111e+01 -3.806677e+01 2.500000e+00
    endloop
  endfacet
  facet normal -0.000000e+00 0.000000e+00 1.000000e+00
    outer loop
      vertex   -6.905111e+01 -3.806677e+01 2.500000e+00
      vertex   -6.900000e+01 -3.845500e+01 2.500000e+00
      vertex   -6.250000e+01 -3.295000e+01 2.500000e+00
    endloop
  endfacet
  facet normal 0.000000e+00 0.000000e+00 1.000000e+00
    outer loop
      vertex   -2.480000e+02 -7.600000e+01 2.500000e+00
      vertex   0.000000e+00 -7.600000e+01 2.500000e+00
      vertex   -6.250000e+01 -4.405000e+01 2.500000e+00
    endloop
  endfacet
  facet normal -0.000000e+00 -0.000000e+00 -1.000000e+00
    outer loop
      vertex   -5.000000e+01 -4.405000e+01 0.000000e+00
      vertex   0.000000e+00 -7.600000e+01 0.000000e+00
      vertex   -6.250000e+01 -4.405000e+01 0.000000e+00
    endloop
  endfacet
  facet normal 0.000000e+00 -0.000000e+00 -1.000000e+00
    outer loop
      vertex   -6.250000e+01 -4.405000e+01 0.000000e+00
      vertex   0.000000e+00 -7.600000e+01 0.000000e+00
      vertex   -2.480000e+02 -7.600000e+01 0.000000e+00
    endloop
  endfacet
  facet normal -0.000000e+00 0.000000e+00 -1.000000e+00
    outer loop
      vertex   -6.250000e+01 -4.405000e+01 0.000000e+00
      vertex   -2.480000e+02 -7.600000e+01 0.000000e+00
      vertex   -7.125000e+01 -3.975404e+01 0.000000e+00
    endloop
  endfacet
  facet normal -0.000000e+00 0.000000e+00 -1.000000e+00
    outer loop
      vertex   -7.125000e+01 -3.975404e+01 0.000000e+00
      vertex   -2.480000e+02 -7.600000e+01 0.000000e+00
      vertex   -7.156066e+01 -3.951566e+01 0.000000e+00
    endloop
  endfacet
  facet normal -0.000000e+00 0.000000e+00 -1.000000e+00
    outer loop
      vertex   -7.156066e+01 -3.951566e+01 0.000000e+00
      vertex   -2.480000e+02 -7.600000e+01 0.000000e+00
      vertex   -7.179904e+01 -3.920500e+01 0.000000e+00
    endloop
  endfacet
  facet normal -0.000000e+00 0.000000e+00 -1.000000e+00
    outer loop
      vertex   -7.179904e+01 -3.920500e+01 0.000000e+00
      vertex   -2.480000e+02 -7.600000e+01 0.000000e+00
      vertex   -7.194889e+01 -3.884323e+01 0.000000e+00
    endloop
  endfacet
  facet normal -0.000000e+00 0.000000e+00 -1.000000e+00
    outer loop
      vertex   -7.194889e+01 -3.884323e+01 0.000000e+00
      vertex   -2.480000e+02 -7.600000e+01 0.000000e+00
      vertex   -7.200000e+01 -3.845500e+01 0.000000e+00
    endloop
  endfacet
  facet normal -0.000000e+00 0.000000e+00 -1.000000e+00
    outer loop
      vertex   -7.200000e+01 -3.845500e+01 0.000000e+00
      vertex   -2.480000e+02 -7.600000e+01 0.000000e+00
      vertex   -2.480000e+02 0.000000e+00 0.000000e+00
    endloop
  endfacet
  facet normal 0.000000e+00 0.000000e+00 -1.000000e+00
    outer loop
      vertex   -7.200000e+01 -3.845500e+01 0.000000e+00
      vertex   -2.480000e+02 0.000000e+00 0.000000e+00
      vertex   -7.194889e+01 -3.806677e+01 0.000000e+00
    endloop
  endfacet
  facet normal 0.000000e+00 0.000000e+00 -1.000000e+00
    outer loop
      vertex   -7.194889e+01 -3.806677e+01 0.000000e+00
      vertex   -2.480000e+02 0.000000e+00 0.000000e+00
      vertex   -7.179904e+01 -3.770500e+01 0.000000e+00
    endloop
  endfacet
  facet normal 0.000000e+00 0.000000e+00 -1.000000e+00
    outer loop
      vertex   -7.179904e+01 -3.770500e+01 0.000000e+00
      vertex   -2.480000e+02 0.000000e+00 0.000000e+00
      vertex   -7.156066e+01 -3.739434e+01 0.000000e+00
    endloop
  endfacet
  facet normal 0.000000e+00 0.000000e+00 -1.000000e+00
    outer loop
      vertex   -7.156066e+01 -3.739434e+01 0.000000e+00
      vertex   -2.480000e+02 0.000000e+00 0.000000e+00
      vertex   -7.125000e+01 -3.715596e+01 0.000000e+00
    endloop
  endfacet
  facet normal 0.000000e+00 0.000000e+00 -1.000000e+00
    outer loop
      vertex   -7.125000e+01 -3.715596e+01 0.000000e+00
      vertex   -2.480000e+02 0.000000e+00 0.000000e+00
      vertex   -7.088823e+01 -3.700611e+01 0.000000e+00
    endloop
  endfacet
  facet normal 0.000000e+00 0.000000e+00 -1.000000e+00
    outer loop
      vertex   -7.088823e+01 -3.700611e+01 0.000000e+00
      vertex   -2.480000e+02 0.000000e+00 0.000000e+00
      vertex   -6.250000e+01 -3.295000e+01 0.000000e+00
    endloop
  endfacet
  facet normal 0.000000e+00 0.000000e+00 -1.000000e+00
    outer loop
      vertex   -7.088823e+01 -3.700611e+01 0.000000e+00
      vertex   -6.250000e+01 -3.295000e+01 0.000000e+00
      vertex   -7.050000e+01 -3.695500e+01 0.000000e+00
    endloop
  endfacet
  facet normal 0.000000e+00 0.000000e+00 -1.000000e+00
    outer loop
      vertex   -7.050000e+01 -3.695500e+01 0.000000e+00
      vertex   -6.250000e+01 -3.295000e+01 0.000000e+00
      vertex   -7.011177e+01 -3.700611e+01 0.000000e+00
    endloop
  endfacet
  facet normal 0.000000e+00 0.000000e+00 -1.000000e+00
    outer loop
      vertex   -7.011177e+01 -3.700611e+01 0.000000e+00
      vertex   -6.250000e+01 -3.295000e+01 0.000000e+00
      vertex   -6.975000e+01 -3.715596e+01 0.000000e+00
    endloop
  endfacet
  facet normal 0.000000e+00 0.000000e+00 -1.000000e+00
    outer loop
      vertex   -6.975000e+01 -3.715596e+01 0.000000e+00
      vertex   -6.250000e+01 -3.295000e+01 0.000000e+00
      vertex   -6.943934e+01 -3.739434e+01 0.000000e+00
    endloop
  endfacet
  facet normal 0.000000e+00 0.000000e+00 -1.000000e+00
    outer loop
      vertex   -6.943934e+01 -3.739434e+01 0.000000e+00
      vertex   -6.250000e+01 -3.295000e+01 0.000000e+00
      vertex   -6.920096e+01 -3.770500e+01 0.000000e+00
    endloop
  endfacet
  facet normal 0.000000e+00 0.000000e+00 -1.000000e+00
    outer loop
      vertex   -6.920096e+01 -3.770500e+01 0.000000e+00
      vertex   -6.250000e+01 -3.295000e+01 0.000000e+00
      vertex   -6.905111e+01 -3.806677e+01 0.000000e+00
    endloop
  endfacet
  facet normal 0.000000e+00 0.000000e+00 -1.000000e+00
    outer loop
      vertex   -6.905111e+01 -3.806677e+01 0.000000e+00
      vertex   -6.250000e+01 -3.295000e+01 0.000000e+00
      vertex   -6.900000e+01 -3.845500e+01 0.000000e+00
    endloop
  endfacet
  facet normal 0.000000e+00 0.000000e+00 -1.000000e+00
    outer loop
      vertex   -6.900000e+01 -3.845500e+01 0.000000e+00
      vertex   -6.250000e+01 -3.295000e+01 0.000000e+00
      vertex   -6.250000e+01 -4.405000e+01 0.000000e+00
    endloop
  endfacet
  facet normal 0.000000e+00 -0.000000e+00 -1.000000e+00
    outer loop
      vertex   -6.900000e+01 -3.845500e+01 0.000000e+00
      vertex   -6.250000e+01 -4.405000e+01 0.000000e+00
      vertex   -6.905111e+01 -3.884323e+01 0.000000e+00
    endloop
  endfacet
  facet normal 0.000000e+00 -0.000000e+00 -1.000000e+00
    outer loop
      vertex   -6.905111e+01 -3.884323e+01 0.000000e+00
      vertex   -6.250000e+01 -4.405000e+01 0.000000e+00
      vertex   -6.920096e+01 -3.920500e+01 0.000000e+00
    endloop
  endfacet
  facet normal 0.000000e+00 -0.000000e+00 -1.000000e+00
    outer loop
      vertex   -6.920096e+01 -3.920500e+01 0.000000e+00
      vertex   -6.250000e+01 -4.405000e+01 0.000000e+00
      vertex   -6.943934e+01 -3.951566e+01 0.000000e+00
    endloop
  endfacet
  facet normal 0.000000e+00 -0.000000e+00 -1.000000e+00
    outer loop
      vertex   -6.943934e+01 -3.951566e+01 0.000000e+00
      vertex   -6.250000e+01 -4.405000e+01 0.000000e+00
      vertex   -6.975000e+01 -3.975404e+01 0.000000e+00
    endloop
  endfacet
  facet normal 0.000000e+00 -0.000000e+00 -1.000000e+00
    outer loop
      vertex   -6.975000e+01 -3.975404e+01 0.000000e+00
      vertex   -6.250000e+01 -4.405000e+01 0.000000e+00
      vertex   -7.011177e+01 -3.990389e+01 0.000000e+00
    endloop
  endfacet
  facet normal 0.000000e+00 -0.000000e+00 -1.000000e+00
    outer loop
      vertex   -7.011177e+01 -3.990389e+01 0.000000e+00
      vertex   -6.250000e+01 -4.405000e+01 0.000000e+00
      vertex   -7.050000e+01 -3.995500e+01 0.000000e+00
    endloop
  endfacet
  facet normal -0.000000e+00 -0.000000e+00 -1.000000e+00
    outer loop
      vertex   -7.050000e+01 -3.995500e+01 0.000000e+00
      vertex   -6.250000e+01 -4.405000e+01 0.000000e+00
      vertex   -7.088823e+01 -3.990389e+01 0.000000e+00
    endloop
  endfacet
  facet normal -0.000000e+00 -0.000000e+00 -1.000000e+00
    outer loop
      vertex   -7.088823e+01 -3.990389e+01 0.000000e+00
      vertex   -6.250000e+01 -4.405000e+01 0.000000e+00
      vertex   -7.125000e+01 -3.975404e+01 0.000000e+00
    endloop
  endfacet
  facet normal 0.000000e+00 0.000000e+00 -1.000000e+00
    outer loop
      vertex   -5.000000e+01 -3.295000e+01 0.000000e+00
      vertex   -4.350000e+01 -3.845500e+01 0.000000e+00
      vertex   -5.000000e+01 -4.405000e+01 0.000000e+00
    endloop
  endfacet
  facet normal 0.000000e+00 0.000000e+00 -1.000000e+00
    outer loop
      vertex   -5.000000e+01 -4.405000e+01 0.000000e+00
      vertex   -4.350000e+01 -3.845500e+01 0.000000e+00
      vertex   -4.344889e+01 -3.884323e+01 0.000000e+00
    endloop
  endfacet
  facet normal 0.000000e+00 0.000000e+00 -1.000000e+00
    outer loop
      vertex   -5.000000e+01 -4.405000e+01 0.000000e+00
      vertex   -4.344889e+01 -3.884323e+01 0.000000e+00
      vertex   -4.329904e+01 -3.920500e+01 0.000000e+00
    endloop
  endfacet
  facet normal 0.000000e+00 0.000000e+00 -1.000000e+00
    outer loop
      vertex   -6.250000e+01 -3.295000e+01 0.000000e+00
      vertex   0.000000e+00 0.000000e+00 0.000000e+00
      vertex   -5.000000e+01 -3.295000e+01 0.000000e+00
    endloop
  endfacet
  facet normal 0.000000e+00 0.000000e+00 -1.000000e+00
    outer loop
      vertex   -5.000000e+01 -3.295000e+01 0.000000e+00
      vertex   0.000000e+00 0.000000e+00 0.000000e+00
      vertex   -4.161177e+01 -3.700611e+01 0.000000e+00
    endloop
  endfacet
  facet normal 0.000000e+00 0.000000e+00 -1.000000e+00
    outer loop
      vertex   -5.000000e+01 -3.295000e+01 0.000000e+00
      vertex   -4.161177e+01 -3.700611e+01 0.000000e+00
      vertex   -4.200000e+01 -3.695500e+01 0.000000e+00
    endloop
  endfacet
  facet normal 0.000000e+00 -0.000000e+00 -1.000000e+00
    outer loop
      vertex   -4.329904e+01 -3.920500e+01 0.000000e+00
      vertex   -4.306066e+01 -3.951566e+01 0.000000e+00
      vertex   -5.000000e+01 -4.405000e+01 0.000000e+00
    endloop
  endfacet
  facet normal 0.000000e+00 0.000000e+00 -1.000000e+00
    outer loop
      vertex   -5.000000e+01 -4.405000e+01 0.000000e+00
      vertex   -4.306066e+01 -3.951566e+01 0.000000e+00
      vertex   -4.275000e+01 -3.975404e+01 0.000000e+00
    endloop
  endfacet
  facet normal 0.000000e+00 0.000000e+00 -1.000000e+00
    outer loop
      vertex   -5.000000e+01 -4.405000e+01 0.000000e+00
      vertex   -4.275000e+01 -3.975404e+01 0.000000e+00
      vertex   -4.238823e+01 -3.990389e+01 0.000000e+00
    endloop
  endfacet
  facet normal 0.000000e+00 -0.000000e+00 -1.000000e+00
    outer loop
      vertex   -4.238823e+01 -3.990389e+01 0.000000e+00
      vertex   -4.200000e+01 -3.995500e+01 0.000000e+00
      vertex   -5.000000e+01 -4.405000e+01 0.000000e+00
    endloop
  endfacet
  facet normal 0.000000e+00 0.000000e+00 -1.000000e+00
    outer loop
      vertex   -5.000000e+01 -4.405000e+01 0.000000e+00
      vertex   -4.200000e+01 -3.995500e+01 0.000000e+00
      vertex   -4.161177e+01 -3.990389e+01 0.000000e+00
    endloop
  endfacet
  facet normal 0.000000e+00 0.000000e+00 -1.000000e+00
    outer loop
      vertex   -5.000000e+01 -4.405000e+01 0.000000e+00
      vertex   -4.161177e+01 -3.990389e+01 0.000000e+00
      vertex   0.000000e+00 -7.600000e+01 0.000000e+00
    endloop
  endfacet
  facet normal 0.000000e+00 0.000000e+00 -1.000000e+00
    outer loop
      vertex   0.000000e+00 -7.600000e+01 0.000000e+00
      vertex   -4.161177e+01 -3.990389e+01 0.000000e+00
      vertex   -4.125000e+01 -3.975404e+01 0.000000e+00
    endloop
  endfacet
  facet normal 0.000000e+00 0.000000e+00 -1.000000e+00
    outer loop
      vertex   0.000000e+00 -7.600000e+01 0.000000e+00
      vertex   -4.125000e+01 -3.975404e+01 0.000000e+00
      vertex   -4.093934e+01 -3.951566e+01 0.000000e+00
    endloop
  endfacet
  facet normal 0.000000e+00 0.000000e+00 -1.000000e+00
    outer loop
      vertex   -4.093934e+01 -3.951566e+01 0.000000e+00
      vertex   -4.070096e+01 -3.920500e+01 0.000000e+00
      vertex   0.000000e+00 -7.600000e+01 0.000000e+00
    endloop
  endfacet
  facet normal 0.000000e+00 0.000000e+00 -1.000000e+00
    outer loop
      vertex   0.000000e+00 -7.600000e+01 0.000000e+00
      vertex   -4.070096e+01 -3.920500e+01 0.000000e+00
      vertex   -4.055111e+01 -3.884323e+01 0.000000e+00
    endloop
  endfacet
  facet normal 0.000000e+00 0.000000e+00 -1.000000e+00
    outer loop
      vertex   0.000000e+00 -7.600000e+01 0.000000e+00
      vertex   -4.055111e+01 -3.884323e+01 0.000000e+00
      vertex   -4.050000e+01 -3.845500e+01 0.000000e+00
    endloop
  endfacet
  facet normal 0.000000e+00 0.000000e+00 -1.000000e+00
    outer loop
      vertex   0.000000e+00 -7.600000e+01 0.000000e+00
      vertex   -4.050000e+01 -3.845500e+01 0.000000e+00
      vertex   0.000000e+00 0.000000e+00 0.000000e+00
    endloop
  endfacet
  facet normal 0.000000e+00 0.000000e+00 -1.000000e+00
    outer loop
      vertex   0.000000e+00 0.000000e+00 0.000000e+00
      vertex   -4.050000e+01 -3.845500e+01 0.000000e+00
      vertex   -4.055111e+01 -3.806677e+01 0.000000e+00
    endloop
  endfacet
  facet normal 0.000000e+00 0.000000e+00 -1.000000e+00
    outer loop
      vertex   0.000000e+00 0.000000e+00 0.000000e+00
      vertex   -4.055111e+01 -3.806677e+01 0.000000e+00
      vertex   -4.070096e+01 -3.770500e+01 0.000000e+00
    endloop
  endfacet
  facet normal 0.000000e+00 0.000000e+00 -1.000000e+00
    outer loop
      vertex   -4.070096e+01 -3.770500e+01 0.000000e+00
      vertex   -4.093934e+01 -3.739434e+01 0.000000e+00
      vertex   0.000000e+00 0.000000e+00 0.000000e+00
    endloop
  endfacet
  facet normal 0.000000e+00 0.000000e+00 -1.000000e+00
    outer loop
      vertex   0.000000e+00 0.000000e+00 0.000000e+00
      vertex   -4.093934e+01 -3.739434e+01 0.000000e+00
      vertex   -4.125000e+01 -3.715596e+01 0.000000e+00
    endloop
  endfacet
  facet normal 0.000000e+00 0.000000e+00 -1.000000e+00
    outer loop
      vertex   0.000000e+00 0.000000e+00 0.000000e+00
      vertex   -4.125000e+01 -3.715596e+01 0.000000e+00
      vertex   -4.161177e+01 -3.700611e+01 0.000000e+00
    endloop
  endfacet
  facet normal -0.000000e+00 0.000000e+00 -1.000000e+00
    outer loop
      vertex   -4.200000e+01 -3.695500e+01 0.000000e+00
      vertex   -4.238823e+01 -3.700611e+01 0.000000e+00
      vertex   -5.000000e+01 -3.295000e+01 0.000000e+00
    endloop
  endfacet
  facet normal 0.000000e+00 0.000000e+00 -1.000000e+00
    outer loop
      vertex   -5.000000e+01 -3.295000e+01 0.000000e+00
      vertex   -4.238823e+01 -3.700611e+01 0.000000e+00
      vertex   -4.275000e+01 -3.715596e+01 0.000000e+00
    endloop
  endfacet
  facet normal 0.000000e+00 0.000000e+00 -1.000000e+00
    outer loop
      vertex   -5.000000e+01 -3.295000e+01 0.000000e+00
      vertex   -4.275000e+01 -3.715596e+01 0.000000e+00
      vertex   -4.306066e+01 -3.739434e+01 0.000000e+00
    endloop
  endfacet
  facet normal -0.000000e+00 0.000000e+00 -1.000000e+00
    outer loop
      vertex   -4.306066e+01 -3.739434e+01 0.000000e+00
      vertex   -4.329904e+01 -3.770500e+01 0.000000e+00
      vertex   -5.000000e+01 -3.295000e+01 0.000000e+00
    endloop
  endfacet
  facet normal 0.000000e+00 0.000000e+00 -1.000000e+00
    outer loop
      vertex   -5.000000e+01 -3.295000e+01 0.000000e+00
      vertex   -4.329904e+01 -3.770500e+01 0.000000e+00
      vertex   -4.344889e+01 -3.806677e+01 0.000000e+00
    endloop
  endfacet
  facet normal 0.000000e+00 0.000000e+00 -1.000000e+00
    outer loop
      vertex   -5.000000e+01 -3.295000e+01 0.000000e+00
      vertex   -4.344889e+01 -3.806677e+01 0.000000e+00
      vertex   -4.350000e+01 -3.845500e+01 0.000000e+00
    endloop
  endfacet
  facet normal 0.000000e+00 0.000000e+00 -1.000000e+00
    outer loop
      vertex   -2.480000e+02 0.000000e+00 0.000000e+00
      vertex   0.000000e+00 0.000000e+00 0.000000e+00
      vertex   -6.250000e+01 -3.295000e+01 0.000000e+00
    endloop
  endfacet
endsolid
